<?xml version="1.0" encoding="utf-8"?>
<!-- Generator: Adobe Illustrator 16.0.3, SVG Export Plug-In . SVG Version: 6.00 Build 0)  -->
<!DOCTYPE svg PUBLIC "-//W3C//DTD SVG 1.1//EN" "http://www.w3.org/Graphics/SVG/1.1/DTD/svg11.dtd">
<svg version="1.1" id="Layer_1" xmlns="http://www.w3.org/2000/svg" xmlns:xlink="http://www.w3.org/1999/xlink" x="0px" y="0px"
	 width="520.75px" height="520.75px" viewBox="0 0 520.75 520.75" enable-background="new 0 0 520.75 520.75" xml:space="preserve">
<g>
	<g>
		<g>
			<path fill="#FFFFFF" d="M410.805,321.437c-2.281,0.688-4.629,1.07-7.025,1.07c-13.316,0-24.836-6.542-31.65-23.134
				c-3.943-9.635-6.471-25.569-6.471-37.966c0-12.591,2.383-29.182,6.471-38.922c6.846-16.316,18.477-22.166,31.65-22.166
				c2.396,0,4.711,0.343,6.963,1.035c-18.75,5.058-33.01,30.044-33.01,60.053C377.732,291.462,392.02,316.444,410.805,321.437z"/>
			<path fill="#FFFFFF" d="M388.705,171.259c23.494-6.31,41.705-1.641,56.791,6.747c17.297,9.601,28.754,43.225,28.754,43.225
				s-24.84,7.814-28.92,8.705c-11.09,0-11.09,0-11.09,0l29.117-8.889c0,0-1.082-5.718-3.443-11.784
				c-2.922-7.515-5.836-14.088-9.945-18.785C432.051,169.993,409.32,167.532,388.705,171.259z"/>
			<path fill="#FFFFFF" d="M400.506,352.912c24.189,2.565,41.445-4.891,55.043-15.524c15.588-12.193,21.205-41.688,21.205-41.688
				s-25.475-10.776-29.645-11.016c-10.891-0.185-10.891-0.185-10.891-0.185l29.424,10.933c0,0-1.824,8.002-3.086,11.527
				c-2.578,7.209-4.066,10.952-7.119,16.239C441.832,346.767,421.449,353.375,400.506,352.912z"/>
		</g>
		<path fill="#FFFFFF" d="M347.84,353.173l12.965-2.162v-13.407c0,0-2.344-1.901-4.922-4.95c-2.67-3.156-5.291-6.632-8.043-10.804
			c-2.414-3.656-3.244-5.683-3.244-5.683h-59.432l-0.156-148.753h-30.004l-12.948,2.234h30.183v152.125v0.076h75.602v31.194"/>
		<g>
			<polygon fill="#FFFFFF" points="241.495,169.674 211.016,169.674 224.086,167.33 254.535,167.33 254.076,169.648 
				241.738,169.648 241.672,232.041 218.035,350.931 205.086,353.173 			"/>
			<polyline fill="#FFFFFF" points="43.997,169.674 75.236,169.674 97.667,296.631 105.009,262.732 88.172,167.432 56.945,167.432 
							"/>
			<polyline fill="#FFFFFF" points="138.09,167.33 174.327,167.33 194.171,262.579 187.789,298.3 161.405,169.674 125.142,169.674 
							"/>
			<polyline fill="#FFFFFF" points="112.991,353.173 125.744,350.931 148.401,242.313 142.606,215.707 112.795,353.173 			"/>
		</g>
		<rect x="230.838" y="167.33" fill="#FFFFFF" width="54.173" height="2.318"/>
	</g>
	<circle fill="none" stroke="#FFFFFF" stroke-width="3" stroke-miterlimit="10" cx="260.375" cy="260.373" r="258.657"/>
</g>
</svg>
